<mxfile host="app.diagrams.net" agent="Mozilla/5.0 (Windows NT 10.0; Win64; x64) AppleWebKit/537.36 (KHTML, like Gecko) Chrome/137.0.0.0 Safari/537.36" version="27.1.4">
  <diagram name="Page-1" id="zxDfuPELCR67Y2VYIu-7">
    <mxGraphModel dx="1042" dy="527" grid="1" gridSize="10" guides="1" tooltips="1" connect="1" arrows="1" fold="1" page="1" pageScale="1" pageWidth="827" pageHeight="1169" math="0" shadow="0">
      <root>
        <mxCell id="0" />
        <mxCell id="1" parent="0" />
        <mxCell id="Ff7fHVLbFeHjFzG6cCIy-1" value="" style="rounded=0;whiteSpace=wrap;html=1;" vertex="1" parent="1">
          <mxGeometry x="110" y="110" width="120" height="60" as="geometry" />
        </mxCell>
        <mxCell id="Ff7fHVLbFeHjFzG6cCIy-2" value="Branch" style="text;html=1;align=center;verticalAlign=middle;whiteSpace=wrap;rounded=0;" vertex="1" parent="1">
          <mxGeometry x="130" y="125" width="60" height="30" as="geometry" />
        </mxCell>
        <mxCell id="Ff7fHVLbFeHjFzG6cCIy-3" value="" style="rounded=0;whiteSpace=wrap;html=1;" vertex="1" parent="1">
          <mxGeometry x="440" y="100" width="120" height="60" as="geometry" />
        </mxCell>
        <mxCell id="Ff7fHVLbFeHjFzG6cCIy-4" value="Center" style="text;html=1;align=center;verticalAlign=middle;whiteSpace=wrap;rounded=0;" vertex="1" parent="1">
          <mxGeometry x="470" y="115" width="60" height="30" as="geometry" />
        </mxCell>
        <mxCell id="Ff7fHVLbFeHjFzG6cCIy-6" value="Text" style="text;html=1;align=center;verticalAlign=middle;whiteSpace=wrap;rounded=0;" vertex="1" parent="1">
          <mxGeometry x="320" y="125" width="60" height="30" as="geometry" />
        </mxCell>
        <mxCell id="Ff7fHVLbFeHjFzG6cCIy-7" style="edgeStyle=orthogonalEdgeStyle;rounded=0;orthogonalLoop=1;jettySize=auto;html=1;exitX=1;exitY=0.25;exitDx=0;exitDy=0;entryX=1;entryY=0.5;entryDx=0;entryDy=0;" edge="1" parent="1" source="Ff7fHVLbFeHjFzG6cCIy-4" target="Ff7fHVLbFeHjFzG6cCIy-4">
          <mxGeometry relative="1" as="geometry" />
        </mxCell>
        <mxCell id="Ff7fHVLbFeHjFzG6cCIy-8" value="has" style="rhombus;whiteSpace=wrap;html=1;" vertex="1" parent="1">
          <mxGeometry x="310" y="100" width="80" height="80" as="geometry" />
        </mxCell>
        <mxCell id="Ff7fHVLbFeHjFzG6cCIy-9" value="" style="endArrow=none;html=1;rounded=0;entryX=0;entryY=0.5;entryDx=0;entryDy=0;" edge="1" parent="1" target="Ff7fHVLbFeHjFzG6cCIy-8">
          <mxGeometry width="50" height="50" relative="1" as="geometry">
            <mxPoint x="230" y="150" as="sourcePoint" />
            <mxPoint x="280" y="100" as="targetPoint" />
          </mxGeometry>
        </mxCell>
        <mxCell id="Ff7fHVLbFeHjFzG6cCIy-10" value="" style="endArrow=none;html=1;rounded=0;entryX=0;entryY=0.5;entryDx=0;entryDy=0;exitX=1;exitY=0.5;exitDx=0;exitDy=0;" edge="1" parent="1" source="Ff7fHVLbFeHjFzG6cCIy-8" target="Ff7fHVLbFeHjFzG6cCIy-3">
          <mxGeometry width="50" height="50" relative="1" as="geometry">
            <mxPoint x="380" y="135" as="sourcePoint" />
            <mxPoint x="460" y="125" as="targetPoint" />
          </mxGeometry>
        </mxCell>
        <mxCell id="Ff7fHVLbFeHjFzG6cCIy-11" value="1" style="text;html=1;align=center;verticalAlign=middle;whiteSpace=wrap;rounded=0;" vertex="1" parent="1">
          <mxGeometry x="250" y="115" width="60" height="30" as="geometry" />
        </mxCell>
        <mxCell id="Ff7fHVLbFeHjFzG6cCIy-12" value="m" style="text;html=1;align=center;verticalAlign=middle;whiteSpace=wrap;rounded=0;" vertex="1" parent="1">
          <mxGeometry x="370" y="110" width="60" height="30" as="geometry" />
        </mxCell>
        <mxCell id="Ff7fHVLbFeHjFzG6cCIy-16" value="has" style="rhombus;whiteSpace=wrap;html=1;" vertex="1" parent="1">
          <mxGeometry x="610" y="100" width="80" height="80" as="geometry" />
        </mxCell>
        <mxCell id="Ff7fHVLbFeHjFzG6cCIy-17" value="" style="endArrow=none;html=1;rounded=0;entryX=0;entryY=0.5;entryDx=0;entryDy=0;" edge="1" parent="1" target="Ff7fHVLbFeHjFzG6cCIy-16">
          <mxGeometry width="50" height="50" relative="1" as="geometry">
            <mxPoint x="560" y="130" as="sourcePoint" />
            <mxPoint x="640" y="120" as="targetPoint" />
          </mxGeometry>
        </mxCell>
        <mxCell id="Ff7fHVLbFeHjFzG6cCIy-18" value="" style="endArrow=none;html=1;rounded=0;entryX=0.5;entryY=0;entryDx=0;entryDy=0;" edge="1" parent="1" target="Ff7fHVLbFeHjFzG6cCIy-19">
          <mxGeometry width="50" height="50" relative="1" as="geometry">
            <mxPoint x="690" y="140" as="sourcePoint" />
            <mxPoint x="740" y="150" as="targetPoint" />
          </mxGeometry>
        </mxCell>
        <mxCell id="Ff7fHVLbFeHjFzG6cCIy-19" value="" style="rounded=0;whiteSpace=wrap;html=1;" vertex="1" parent="1">
          <mxGeometry x="680" y="180" width="120" height="60" as="geometry" />
        </mxCell>
        <mxCell id="Ff7fHVLbFeHjFzG6cCIy-20" value="Group" style="text;html=1;align=center;verticalAlign=middle;whiteSpace=wrap;rounded=0;" vertex="1" parent="1">
          <mxGeometry x="700" y="200" width="60" height="30" as="geometry" />
        </mxCell>
        <mxCell id="Ff7fHVLbFeHjFzG6cCIy-21" value="3..5" style="text;html=1;align=center;verticalAlign=middle;whiteSpace=wrap;rounded=0;" vertex="1" parent="1">
          <mxGeometry x="770" y="360" width="60" height="30" as="geometry" />
        </mxCell>
        <mxCell id="Ff7fHVLbFeHjFzG6cCIy-22" value="1" style="text;html=1;align=center;verticalAlign=middle;whiteSpace=wrap;rounded=0;" vertex="1" parent="1">
          <mxGeometry x="560" y="110" width="60" height="30" as="geometry" />
        </mxCell>
        <mxCell id="Ff7fHVLbFeHjFzG6cCIy-23" value="" style="ellipse;whiteSpace=wrap;html=1;" vertex="1" parent="1">
          <mxGeometry x="30" y="35" width="120" height="35" as="geometry" />
        </mxCell>
        <mxCell id="Ff7fHVLbFeHjFzG6cCIy-24" value="branch_name" style="text;html=1;align=center;verticalAlign=middle;whiteSpace=wrap;rounded=0;" vertex="1" parent="1">
          <mxGeometry x="60" y="40" width="60" height="30" as="geometry" />
        </mxCell>
        <mxCell id="Ff7fHVLbFeHjFzG6cCIy-25" value="" style="endArrow=none;html=1;rounded=0;exitX=0.25;exitY=0;exitDx=0;exitDy=0;" edge="1" parent="1" source="Ff7fHVLbFeHjFzG6cCIy-1">
          <mxGeometry width="50" height="50" relative="1" as="geometry">
            <mxPoint x="60" y="120" as="sourcePoint" />
            <mxPoint x="110" y="70" as="targetPoint" />
          </mxGeometry>
        </mxCell>
        <mxCell id="Ff7fHVLbFeHjFzG6cCIy-26" value="" style="ellipse;whiteSpace=wrap;html=1;" vertex="1" parent="1">
          <mxGeometry x="414" y="30" width="120" height="35" as="geometry" />
        </mxCell>
        <mxCell id="Ff7fHVLbFeHjFzG6cCIy-27" value="center_name" style="text;html=1;align=center;verticalAlign=middle;whiteSpace=wrap;rounded=0;" vertex="1" parent="1">
          <mxGeometry x="444" y="33" width="60" height="30" as="geometry" />
        </mxCell>
        <mxCell id="Ff7fHVLbFeHjFzG6cCIy-28" value="" style="ellipse;whiteSpace=wrap;html=1;" vertex="1" parent="1">
          <mxGeometry x="420" y="200" width="120" height="35" as="geometry" />
        </mxCell>
        <mxCell id="Ff7fHVLbFeHjFzG6cCIy-29" value="payment_date" style="text;html=1;align=center;verticalAlign=middle;whiteSpace=wrap;rounded=0;" vertex="1" parent="1">
          <mxGeometry x="444" y="200" width="60" height="30" as="geometry" />
        </mxCell>
        <mxCell id="Ff7fHVLbFeHjFzG6cCIy-30" value="" style="ellipse;whiteSpace=wrap;html=1;" vertex="1" parent="1">
          <mxGeometry x="550" y="37.5" width="120" height="35" as="geometry" />
        </mxCell>
        <mxCell id="Ff7fHVLbFeHjFzG6cCIy-31" value="manager_name" style="text;html=1;align=center;verticalAlign=middle;whiteSpace=wrap;rounded=0;" vertex="1" parent="1">
          <mxGeometry x="580" y="37.5" width="60" height="30" as="geometry" />
        </mxCell>
        <mxCell id="Ff7fHVLbFeHjFzG6cCIy-32" value="" style="endArrow=none;html=1;rounded=0;exitX=0.5;exitY=0;exitDx=0;exitDy=0;" edge="1" parent="1" source="Ff7fHVLbFeHjFzG6cCIy-29">
          <mxGeometry width="50" height="50" relative="1" as="geometry">
            <mxPoint x="440" y="210" as="sourcePoint" />
            <mxPoint x="490" y="160" as="targetPoint" />
          </mxGeometry>
        </mxCell>
        <mxCell id="Ff7fHVLbFeHjFzG6cCIy-33" value="" style="endArrow=none;html=1;rounded=0;exitX=0.43;exitY=0.06;exitDx=0;exitDy=0;entryX=0.5;entryY=1;entryDx=0;entryDy=0;exitPerimeter=0;" edge="1" parent="1" source="Ff7fHVLbFeHjFzG6cCIy-3" target="Ff7fHVLbFeHjFzG6cCIy-27">
          <mxGeometry width="50" height="50" relative="1" as="geometry">
            <mxPoint x="600" y="320" as="sourcePoint" />
            <mxPoint x="616" y="280" as="targetPoint" />
          </mxGeometry>
        </mxCell>
        <mxCell id="Ff7fHVLbFeHjFzG6cCIy-34" value="" style="endArrow=none;html=1;rounded=0;exitX=0.75;exitY=0;exitDx=0;exitDy=0;" edge="1" parent="1" source="Ff7fHVLbFeHjFzG6cCIy-3">
          <mxGeometry width="50" height="50" relative="1" as="geometry">
            <mxPoint x="520" y="120" as="sourcePoint" />
            <mxPoint x="570" y="70" as="targetPoint" />
          </mxGeometry>
        </mxCell>
        <mxCell id="Ff7fHVLbFeHjFzG6cCIy-35" value="" style="ellipse;whiteSpace=wrap;html=1;" vertex="1" parent="1">
          <mxGeometry x="560" y="265" width="120" height="40" as="geometry" />
        </mxCell>
        <mxCell id="Ff7fHVLbFeHjFzG6cCIy-36" value="group_name" style="text;html=1;align=center;verticalAlign=middle;whiteSpace=wrap;rounded=0;" vertex="1" parent="1">
          <mxGeometry x="590" y="270" width="60" height="30" as="geometry" />
        </mxCell>
        <mxCell id="Ff7fHVLbFeHjFzG6cCIy-37" value="" style="rounded=0;whiteSpace=wrap;html=1;" vertex="1" parent="1">
          <mxGeometry x="720" y="400" width="120" height="60" as="geometry" />
        </mxCell>
        <mxCell id="Ff7fHVLbFeHjFzG6cCIy-38" value="Member" style="text;html=1;align=center;verticalAlign=middle;whiteSpace=wrap;rounded=0;" vertex="1" parent="1">
          <mxGeometry x="750" y="410" width="60" height="30" as="geometry" />
        </mxCell>
        <mxCell id="Ff7fHVLbFeHjFzG6cCIy-39" value="" style="endArrow=none;html=1;rounded=0;exitX=0.39;exitY=0.06;exitDx=0;exitDy=0;exitPerimeter=0;" edge="1" parent="1" source="Ff7fHVLbFeHjFzG6cCIy-35">
          <mxGeometry width="50" height="50" relative="1" as="geometry">
            <mxPoint x="630" y="290" as="sourcePoint" />
            <mxPoint x="680" y="240" as="targetPoint" />
          </mxGeometry>
        </mxCell>
        <mxCell id="Ff7fHVLbFeHjFzG6cCIy-40" value="" style="rhombus;whiteSpace=wrap;html=1;" vertex="1" parent="1">
          <mxGeometry x="730" y="290" width="80" height="80" as="geometry" />
        </mxCell>
        <mxCell id="Ff7fHVLbFeHjFzG6cCIy-41" value="m" style="text;html=1;align=center;verticalAlign=middle;whiteSpace=wrap;rounded=0;" vertex="1" parent="1">
          <mxGeometry x="710" y="150" width="60" height="30" as="geometry" />
        </mxCell>
        <mxCell id="Ff7fHVLbFeHjFzG6cCIy-42" value="Text" style="text;html=1;align=center;verticalAlign=middle;whiteSpace=wrap;rounded=0;" vertex="1" parent="1">
          <mxGeometry x="590" y="385" width="60" height="30" as="geometry" />
        </mxCell>
        <mxCell id="Ff7fHVLbFeHjFzG6cCIy-43" value="has" style="text;html=1;align=center;verticalAlign=middle;whiteSpace=wrap;rounded=0;" vertex="1" parent="1">
          <mxGeometry x="740" y="315" width="60" height="30" as="geometry" />
        </mxCell>
        <mxCell id="Ff7fHVLbFeHjFzG6cCIy-45" value="" style="endArrow=none;html=1;rounded=0;exitX=0.5;exitY=0;exitDx=0;exitDy=0;" edge="1" parent="1" source="Ff7fHVLbFeHjFzG6cCIy-40">
          <mxGeometry width="50" height="50" relative="1" as="geometry">
            <mxPoint x="710" y="290" as="sourcePoint" />
            <mxPoint x="760" y="240" as="targetPoint" />
          </mxGeometry>
        </mxCell>
        <mxCell id="Ff7fHVLbFeHjFzG6cCIy-46" value="" style="endArrow=none;html=1;rounded=0;exitX=0.423;exitY=0.02;exitDx=0;exitDy=0;exitPerimeter=0;" edge="1" parent="1" source="Ff7fHVLbFeHjFzG6cCIy-37">
          <mxGeometry width="50" height="50" relative="1" as="geometry">
            <mxPoint x="720" y="420" as="sourcePoint" />
            <mxPoint x="770" y="370" as="targetPoint" />
          </mxGeometry>
        </mxCell>
        <mxCell id="Ff7fHVLbFeHjFzG6cCIy-47" value="1" style="text;html=1;align=center;verticalAlign=middle;whiteSpace=wrap;rounded=0;" vertex="1" parent="1">
          <mxGeometry x="750" y="250" width="60" height="30" as="geometry" />
        </mxCell>
        <mxCell id="Ff7fHVLbFeHjFzG6cCIy-48" value="member_full_name" style="ellipse;whiteSpace=wrap;html=1;" vertex="1" parent="1">
          <mxGeometry x="570" y="380" width="120" height="40" as="geometry" />
        </mxCell>
        <mxCell id="Ff7fHVLbFeHjFzG6cCIy-49" value="" style="endArrow=none;html=1;rounded=0;exitX=0;exitY=0.75;exitDx=0;exitDy=0;" edge="1" parent="1" source="Ff7fHVLbFeHjFzG6cCIy-37">
          <mxGeometry width="50" height="50" relative="1" as="geometry">
            <mxPoint x="630" y="460" as="sourcePoint" />
            <mxPoint x="680" y="410" as="targetPoint" />
          </mxGeometry>
        </mxCell>
        <mxCell id="Ff7fHVLbFeHjFzG6cCIy-50" value="mobile_no_1" style="ellipse;whiteSpace=wrap;html=1;" vertex="1" parent="1">
          <mxGeometry x="600" y="480" width="120" height="40" as="geometry" />
        </mxCell>
        <mxCell id="Ff7fHVLbFeHjFzG6cCIy-51" value="mobile_no_2" style="ellipse;whiteSpace=wrap;html=1;" vertex="1" parent="1">
          <mxGeometry x="730" y="490" width="120" height="40" as="geometry" />
        </mxCell>
        <mxCell id="Ff7fHVLbFeHjFzG6cCIy-52" value="" style="endArrow=none;html=1;rounded=0;exitX=1;exitY=0;exitDx=0;exitDy=0;" edge="1" parent="1" source="Ff7fHVLbFeHjFzG6cCIy-50">
          <mxGeometry width="50" height="50" relative="1" as="geometry">
            <mxPoint x="670" y="510" as="sourcePoint" />
            <mxPoint x="720" y="460" as="targetPoint" />
          </mxGeometry>
        </mxCell>
        <mxCell id="Ff7fHVLbFeHjFzG6cCIy-53" value="address" style="ellipse;whiteSpace=wrap;html=1;" vertex="1" parent="1">
          <mxGeometry x="880" y="400" width="120" height="40" as="geometry" />
        </mxCell>
        <mxCell id="Ff7fHVLbFeHjFzG6cCIy-54" value="" style="endArrow=none;html=1;rounded=0;exitX=0.44;exitY=-0.02;exitDx=0;exitDy=0;entryX=0.397;entryY=1.02;entryDx=0;entryDy=0;entryPerimeter=0;exitPerimeter=0;" edge="1" parent="1" source="Ff7fHVLbFeHjFzG6cCIy-51" target="Ff7fHVLbFeHjFzG6cCIy-37">
          <mxGeometry width="50" height="50" relative="1" as="geometry">
            <mxPoint x="710" y="496" as="sourcePoint" />
            <mxPoint x="728" y="470" as="targetPoint" />
          </mxGeometry>
        </mxCell>
        <mxCell id="Ff7fHVLbFeHjFzG6cCIy-55" value="" style="endArrow=none;html=1;rounded=0;exitX=1.037;exitY=0.38;exitDx=0;exitDy=0;exitPerimeter=0;entryX=0.087;entryY=0.825;entryDx=0;entryDy=0;entryPerimeter=0;" edge="1" parent="1" source="Ff7fHVLbFeHjFzG6cCIy-37" target="Ff7fHVLbFeHjFzG6cCIy-53">
          <mxGeometry width="50" height="50" relative="1" as="geometry">
            <mxPoint x="850" y="416" as="sourcePoint" />
            <mxPoint x="868" y="390" as="targetPoint" />
          </mxGeometry>
        </mxCell>
        <mxCell id="Ff7fHVLbFeHjFzG6cCIy-56" value="" style="rounded=0;whiteSpace=wrap;html=1;" vertex="1" parent="1">
          <mxGeometry x="380" y="440" width="120" height="60" as="geometry" />
        </mxCell>
        <mxCell id="Ff7fHVLbFeHjFzG6cCIy-57" value="Loan" style="text;html=1;align=center;verticalAlign=middle;whiteSpace=wrap;rounded=0;" vertex="1" parent="1">
          <mxGeometry x="410" y="455" width="60" height="30" as="geometry" />
        </mxCell>
      </root>
    </mxGraphModel>
  </diagram>
</mxfile>
